<svg width="25" height="24" viewBox="0 0 25 24" fill="none" xmlns="http://www.w3.org/2000/svg">
<path opacity="0.5" d="M21.0234 16.42V19.956C21.0236 20.2092 20.9276 20.453 20.755 20.6382C20.5824 20.8234 20.346 20.9363 20.0934 20.954C19.6564 20.984 19.2994 21 19.0234 21C10.1864 21 3.02344 13.837 3.02344 5C3.02344 4.724 3.03844 4.367 3.06944 3.93C3.08716 3.67744 3.20002 3.44101 3.38524 3.26841C3.57046 3.09581 3.81426 2.99989 4.06744 3H7.60344C7.72748 2.99987 7.84713 3.04586 7.93917 3.12902C8.0312 3.21218 8.08903 3.32658 8.10144 3.45C8.12444 3.68 8.14544 3.863 8.16544 4.002C8.36417 5.38892 8.77144 6.73783 9.37344 8.003C9.46844 8.203 9.40644 8.442 9.22644 8.57L7.06844 10.112C8.38789 13.1865 10.838 15.6365 13.9124 16.956L15.4524 14.802C15.5154 14.714 15.6072 14.6509 15.7119 14.6237C15.8166 14.5964 15.9276 14.6068 16.0254 14.653C17.2905 15.2539 18.639 15.6601 20.0254 15.858C20.1644 15.878 20.3474 15.9 20.5754 15.922C20.6987 15.9346 20.8128 15.9926 20.8958 16.0846C20.9787 16.1766 21.0246 16.2961 21.0244 16.42H21.0234Z" fill="#1D1D1D"/>
</svg>
